<?xml version="1.0" encoding="utf-8"?>
<!-- Generator: Adobe Illustrator 21.1.0, SVG Export Plug-In . SVG Version: 6.00 Build 0)  -->
<svg version="1.1" id="Layer_1" xmlns="http://www.w3.org/2000/svg" xmlns:xlink="http://www.w3.org/1999/xlink" x="0px" y="0px"
	 viewBox="0 0 360 288" style="enable-background:new 0 0 360 288;" xml:space="preserve">
<style type="text/css">
	.st0{fill:none;stroke:#FFFFFF;stroke-width:7.479;stroke-miterlimit:10;}
	.st1{fill:none;stroke:#FFFFFF;stroke-width:7.5872;stroke-miterlimit:10;}
	.st2{display:none;}
	.st3{display:inline;fill:#231F20;}
	.st4{font-family:'MyriadArabic-Regular';}
	.st5{font-size:30px;}
	.st6{fill:#FFFFFF;}
</style>
<g>
	<circle class="st0" cx="316.5" cy="54.9" r="26.4"/>
	<line class="st1" x1="261.2" y1="110.6" x2="290.1" y2="54.9"/>
	<circle class="st1" cx="261.2" cy="137.4" r="26.8"/>
	<line class="st1" x1="316.5" y1="202.5" x2="316.5" y2="81.3"/>
	<circle class="st0" cx="316.5" cy="228.9" r="26.4"/>
	<line class="st1" x1="290.1" y1="228.9" x2="261.2" y2="164.2"/>
</g>
<g class="st2">
	<text transform="matrix(1 0 0 1 34.0403 55.8464)" class="st3 st4 st5">5/8</text>
	<text transform="matrix(1 0 0 1 162.4952 162.299)" class="st3 st4 st5">5/8</text>
	<text transform="matrix(1 0 0 1 58.9936 226.7998)" class="st3 st4 st5">5/9</text>
	<text transform="matrix(1 0 0 1 242.8965 80.399)" class="st3 st4 st5">5/7</text>
	<text transform="matrix(1 0 0 1 301.0572 157.8982)" class="st3 st4 st5">5/11</text>
	<text transform="matrix(1 0 0 1 262.9952 246.4665)" class="st3 st4 st5">5/9</text>
</g>
<path class="st1" d="M135.9,256.5"/>
<circle class="st0" cx="36.3" cy="54.9" r="26.4"/>
<line class="st1" x1="62.7" y1="54.9" x2="91.6" y2="110.6"/>
<circle class="st1" cx="91.6" cy="137.4" r="26.8"/>
<line class="st1" x1="36.3" y1="81.3" x2="36.3" y2="202.5"/>
<circle class="st0" cx="36.3" cy="228.9" r="26.4"/>
<line class="st1" x1="91.6" y1="164.2" x2="62.7" y2="228.9"/>
<line class="st1" x1="118.4" y1="137.4" x2="235.7" y2="137.4"/>
<line class="st1" x1="211.5" y1="137.4" x2="235.7" y2="137.4"/>
<g>
	<text transform="matrix(1 0 0 1 16.4222 62.2982)" class="st6 st4 st5">0/10</text>
	<text transform="matrix(1 0 0 1 16.4222 237.2982)" class="st6 st4 st5">0/10</text>
	<text transform="matrix(1 0 0 1 297.4222 236.2982)" class="st6 st4 st5">0/10</text>
	<text transform="matrix(1 0 0 1 295.4222 61.2982)" class="st6 st4 st5">0/10</text>
	<text transform="matrix(1 0 0 1 240.4214 145.2982)" class="st6 st4 st5">6/10</text>
	<text transform="matrix(1 0 0 1 71.4222 144.2982)" class="st6 st4 st5">6/10</text>
</g>
</svg>
