<?xml version="1.0" encoding="utf-8"?>
<!-- Generator: Adobe Illustrator 21.1.0, SVG Export Plug-In . SVG Version: 6.00 Build 0)  -->
<svg version="1.1" id="Layer_1" xmlns="http://www.w3.org/2000/svg" xmlns:xlink="http://www.w3.org/1999/xlink" x="0px" y="0px"
	 viewBox="0 0 360 288" style="enable-background:new 0 0 360 288;" xml:space="preserve">
<style type="text/css">
	.st0{fill:none;stroke:#FFFFFF;stroke-width:10;stroke-miterlimit:10;}
	.st1{fill:none;stroke:#FFFFFF;stroke-width:7.5872;stroke-miterlimit:10;}
	.st2{fill:none;stroke:#FFFFFF;stroke-width:10;stroke-linecap:round;stroke-linejoin:round;stroke-miterlimit:10;}
	.st3{fill:none;stroke:#FFFFFF;stroke-width:7.479;stroke-miterlimit:10;}
	.st4{fill:#FFFFFF;}
	.st5{font-family:'MyriadArabic-Regular';}
	.st6{font-size:30px;}
</style>
<circle class="st0" cx="52.6" cy="50.9" r="35.3"/>
<circle class="st1" cx="76.3" cy="221.2" r="26.8"/>
<circle class="st0" cx="179.7" cy="156.2" r="35.3"/>
<line class="st2" x1="80.5" y1="73.6" x2="152.8" y2="128.7"/>
<line class="st2" x1="101.9" y1="205.6" x2="147.7" y2="175.3"/>
<circle class="st3" cx="260.6" cy="73.3" r="26.4"/>
<circle class="st0" cx="280.1" cy="240.3" r="35.3"/>
<line class="st0" x1="203" y1="183.2" x2="251.9" y2="222.9"/>
<line class="st2" x1="242" y1="95.3" x2="207.1" y2="130.1"/>
<path class="st0" d="M71.7,205.1"/>
<line class="st1" x1="215.7" y1="155.5" x2="297.6" y2="155.3"/>
<circle class="st1" cx="323.6" cy="152.7" r="26.8"/>
<line class="st1" x1="298.1" y1="209.7" x2="313.9" y2="179.9"/>
<g>
	<text transform="matrix(1 0 0 1 39.0419 58.8472)" class="st4 st5 st6">5/9</text>
	<text transform="matrix(1 0 0 1 165.4952 163.2982)" class="st4 st5 st6">5/6</text>
	<text transform="matrix(1 0 0 1 61.9936 228.7998)" class="st4 st5 st6">5/9</text>
	<text transform="matrix(1 0 0 1 246.8973 80.3974)" class="st4 st5 st6">5/9</text>
	<text transform="matrix(1 0 0 1 310.062 159.8982)" class="st4 st5 st6">5/8</text>
	<text transform="matrix(1 0 0 1 266.996 247.4657)" class="st4 st5 st6">5/8</text>
</g>
</svg>
