<?xml version="1.0" encoding="utf-8"?>
<!-- Generator: Adobe Illustrator 21.1.0, SVG Export Plug-In . SVG Version: 6.00 Build 0)  -->
<svg version="1.1" id="Layer_1" xmlns="http://www.w3.org/2000/svg" xmlns:xlink="http://www.w3.org/1999/xlink" x="0px" y="0px"
	 viewBox="0 0 720 288" style="enable-background:new 0 0 720 288;" xml:space="preserve">
<style type="text/css">
	.st0{fill:none;stroke:#FFFFFF;stroke-width:10;stroke-miterlimit:10;}
	.st1{fill:none;stroke:#FFFFFF;stroke-width:7.5872;stroke-miterlimit:10;}
	.st2{fill:none;stroke:#FFFFFF;stroke-width:10;stroke-linecap:round;stroke-linejoin:round;stroke-miterlimit:10;}
	.st3{fill:none;stroke:#FFFFFF;stroke-width:7.479;stroke-miterlimit:10;}
	.st4{fill:none;stroke:#CF2028;stroke-width:10;stroke-miterlimit:10;}
	.st5{fill:none;}
	.st6{fill:#FFFFFF;}
	.st7{font-family:'MyriadArabic-Regular';}
	.st8{font-size:30px;}
	.st9{fill:#CF2029;}
	.st10{fill:#CF2028;}
	.st11{fill:none;stroke:#010101;stroke-width:7.5872;stroke-miterlimit:10;}
</style>
<circle class="st0" cx="43.9" cy="49.3" r="35.3"/>
<circle class="st1" cx="67.6" cy="219.6" r="26.8"/>
<path class="st2" d="M144.1,127.1"/>
<path class="st2" d="M71.8,72"/>
<path class="st2" d="M139,173.7"/>
<path class="st2" d="M93.2,204"/>
<circle class="st3" cx="251.9" cy="71.7" r="26.4"/>
<circle class="st0" cx="271.4" cy="238.7" r="35.3"/>
<line class="st0" x1="194.3" y1="181.6" x2="243.2" y2="221.3"/>
<line class="st2" x1="233.3" y1="93.7" x2="198.4" y2="128.5"/>
<path class="st0" d="M63,203.5"/>
<line class="st1" x1="268.2" y1="91.9" x2="300.8" y2="126.4"/>
<circle class="st1" cx="314.9" cy="151.1" r="26.8"/>
<line class="st1" x1="80.1" y1="47.2" x2="224.5" y2="66.4"/>
<circle class="st4" cx="171" cy="154.6" r="35.3"/>
<rect x="35.3" y="36.9" class="st5" width="20" height="26.5"/>
<text transform="matrix(1 0 0 1 35.3186 58.2238)" class="st6 st7 st8">2</text>
<rect x="162.8" y="142.4" class="st5" width="20" height="31"/>
<text transform="matrix(1 0 0 1 162.7727 163.6756)" class="st9 st7 st8">2</text>
<rect x="59.3" y="206.9" class="st5" width="20" height="23.5"/>
<text transform="matrix(1 0 0 1 59.2711 228.1764)" class="st6 st7 st8">2</text>
<rect x="244.2" y="59.5" class="st5" width="20" height="23.9"/>
<text transform="matrix(1 0 0 1 244.1748 80.7748)" class="st6 st7 st8">3</text>
<rect x="307.4" y="139" class="st5" width="20" height="31"/>
<text transform="matrix(1 0 0 1 307.3394 160.2756)" class="st6 st7 st8">1</text>
<rect x="263.3" y="225.6" class="st5" width="20" height="31"/>
<text transform="matrix(1 0 0 1 263.2727 246.8423)" class="st6 st7 st8">2</text>
<line class="st1" x1="93.7" y1="229.1" x2="238.1" y2="248.2"/>
<line class="st1" x1="43.9" y1="84.6" x2="61.7" y2="192.4"/>
<path class="st1" d="M142.2,134.7"/>
<path class="st1" d="M70.5,75.2"/>
<g>
	<circle class="st0" cx="412.5" cy="48.9" r="35.3"/>
	<circle class="st1" cx="436.2" cy="219.2" r="26.8"/>
	<circle class="st3" cx="620.5" cy="71.3" r="26.4"/>
	<circle class="st0" cx="640" cy="238.3" r="35.3"/>
	<line class="st0" x1="562.9" y1="181.2" x2="611.8" y2="220.9"/>
	<line class="st2" x1="601.9" y1="93.3" x2="567" y2="128.1"/>
	<line class="st1" x1="636.8" y1="91.5" x2="669.4" y2="126"/>
	<circle class="st1" cx="683.5" cy="150.7" r="26.8"/>
	<line class="st1" x1="448.7" y1="46.8" x2="593.1" y2="66"/>
	<line class="st1" x1="462.3" y1="228.7" x2="606.7" y2="247.8"/>
	<line class="st1" x1="412.5" y1="84.2" x2="430.3" y2="192"/>
</g>
<circle class="st4" cx="539.6" cy="154.2" r="35.3"/>
<g>
	<text transform="matrix(1 0 0 1 396.9729 55.8456)" class="st6 st7 st8">5/8</text>
	<text transform="matrix(1 0 0 1 525.427 162.2982)" class="st10 st7 st8">5/8</text>
	<text transform="matrix(1 0 0 1 421.9262 226.799)" class="st6 st7 st8">5/9</text>
	<text transform="matrix(1 0 0 1 605.8278 80.3982)" class="st6 st7 st8">5/7</text>
	<text transform="matrix(1 0 0 1 663.988 157.8974)" class="st6 st7 st8">5/11</text>
	<text transform="matrix(1 0 0 1 625.9264 246.4657)" class="st6 st7 st8">5/9</text>
</g>
<path class="st11" d="M510.8,134.3"/>
</svg>
