<?xml version="1.0" encoding="utf-8"?>
<!-- Generator: Adobe Illustrator 21.1.0, SVG Export Plug-In . SVG Version: 6.00 Build 0)  -->
<svg version="1.1" id="Layer_1" xmlns="http://www.w3.org/2000/svg" xmlns:xlink="http://www.w3.org/1999/xlink" x="0px" y="0px"
	 viewBox="0 0 360 288" style="enable-background:new 0 0 360 288;" xml:space="preserve">
<style type="text/css">
	.st0{fill:none;stroke:#FFFFFF;stroke-width:7.5872;stroke-miterlimit:10;}
	.st1{fill:none;stroke:#FFFFFF;stroke-width:10;stroke-miterlimit:10;}
	.st2{fill:none;stroke:#FFFFFF;stroke-width:8;stroke-linecap:round;stroke-linejoin:round;stroke-miterlimit:10;}
	.st3{fill:none;stroke:#FFFFFF;stroke-width:7.479;stroke-miterlimit:10;}
	.st4{fill:none;stroke:#FFFFFF;stroke-width:5.6093;stroke-miterlimit:10;}
	.st5{fill:none;}
	.st6{fill:#FFFFFF;}
	.st7{font-family:'GillSans';}
	.st8{font-size:22px;}
</style>
<ellipse transform="matrix(0.993 -0.1177 0.1177 0.993 -13.4968 4.8287)" class="st0" cx="34.1" cy="116.6" rx="26.8" ry="26.8"/>
<path class="st1" d="M117.6,150.7c-19.4,2.3-36.9-11.5-39.2-30.9c-2.6-22,11.9-37,30.9-39.2c19.4-2.3,36.9,11.5,39.2,30.9
	C150.8,130.9,137,148.4,117.6,150.7z"/>
<line class="st2" x1="78.9" y1="117.1" x2="61.5" y2="117.3"/>
<ellipse transform="matrix(0.993 -0.1177 0.1177 0.993 -3.1595 13.1778)" class="st3" cx="110" cy="33.3" rx="26.4" ry="26.4"/>
<line class="st2" x1="110.3" y1="81.6" x2="110.1" y2="60.5"/>
<ellipse transform="matrix(0.993 -0.1177 0.1177 0.993 -3.8048 4.2561)" class="st0" cx="34.1" cy="34.3" rx="26.8" ry="26.8"/>
<line class="st2" x1="57.3" y1="55.2" x2="89.1" y2="88.8"/>
<path class="st1" d="M141.3,218.1"/>
<path class="st1" d="M211.6,209.7c-19.4,2.3-36.9-11.5-39.2-30.9c-2.6-22,11.9-37,30.9-39.2c19.4-2.3,36.9,11.5,39.2,30.9
	C244.8,189.9,231,207.4,211.6,209.7z"/>
<line class="st2" x1="145.7" y1="132.7" x2="176.3" y2="154.7"/>
<ellipse transform="matrix(0.1177 -0.993 0.993 0.1177 -108.0269 339.0833)" class="st0" cx="136.8" cy="230.3" rx="26.8" ry="26.8"/>
<line class="st2" x1="161.7" y1="212" x2="179.5" y2="198.5"/>
<ellipse transform="matrix(0.1177 -0.993 0.993 0.1177 125.3927 375.9771)" class="st3" cx="274.3" cy="117.4" rx="26.4" ry="26.4"/>
<line class="st2" x1="234.1" y1="151.5" x2="251.9" y2="137.9"/>
<line class="st2" x1="275.1" y1="89.6" x2="275.1" y2="70.1"/>
<ellipse transform="matrix(0.9999 -1.566123e-02 1.566123e-02 0.9999 -0.7292 4.3227)" class="st4" cx="275.6" cy="48.7" rx="19.8" ry="19.8"/>
<line class="st2" x1="293.9" y1="99" x2="307.3" y2="86"/>
<ellipse transform="matrix(0.9999 -1.566123e-02 1.566123e-02 0.9999 -1.0795 5.0639)" class="st4" cx="322.8" cy="71.5" rx="19.8" ry="19.8"/>
<line class="st2" x1="256.8" y1="97.2" x2="242.1" y2="85.4"/>
<ellipse transform="matrix(0.9999 -1.566123e-02 1.566123e-02 0.9999 -1.0651 3.5701)" class="st4" cx="227.4" cy="69.8" rx="19.8" ry="19.8"/>
<line class="st2" x1="109.3" y1="237" x2="93.2" y2="244.2"/>
<ellipse transform="matrix(0.9999 -1.566123e-02 1.566123e-02 0.9999 -3.9162 1.1705)" class="st4" cx="72.8" cy="250.6" rx="19.8" ry="19.8"/>
<line class="st2" x1="180" y1="245.4" x2="163.6" y2="237.9"/>
<ellipse transform="matrix(0.9999 -1.566123e-02 1.566123e-02 0.9999 -3.9005 3.1804)" class="st4" cx="201.1" cy="250.6" rx="19.8" ry="19.8"/>
<line class="st2" x1="117" y1="211.5" x2="104" y2="201"/>
<ellipse transform="matrix(0.9999 -1.566123e-02 1.566123e-02 0.9999 -2.9173 1.3974)" class="st4" cx="87.8" cy="187" rx="19.8" ry="19.8"/>
<rect x="83.4" y="90.6" class="st5" width="60.6" height="52.3"/>
<text transform="matrix(1 0 0 1 108.2184 105.617)"><tspan x="0" y="0" class="st6 st7 st8">4</tspan><tspan x="-13.4" y="29" class="st6 st7 st8">.091</tspan></text>
<rect x="177.4" y="150.3" class="st5" width="60.6" height="52.3"/>
<text transform="matrix(1 0 0 1 202.2184 165.2837)"><tspan x="0" y="0" class="st6 st7 st8">3</tspan><tspan x="-13.4" y="29" class="st6 st7 st8">.182</tspan></text>
</svg>
