<?xml version="1.0" encoding="utf-8"?>
<!-- Generator: Adobe Illustrator 21.1.0, SVG Export Plug-In . SVG Version: 6.00 Build 0)  -->
<svg version="1.1" id="Layer_1" xmlns="http://www.w3.org/2000/svg" xmlns:xlink="http://www.w3.org/1999/xlink" x="0px" y="0px"
	 viewBox="0 0 360 288" style="enable-background:new 0 0 360 288;" xml:space="preserve">
<style type="text/css">
	.st0{fill:none;stroke:#FFFFFF;stroke-width:10;stroke-miterlimit:10;}
	.st1{fill:none;stroke:#FFFFFF;stroke-width:7.5872;stroke-miterlimit:10;}
	.st2{fill:none;stroke:#FFFFFF;stroke-width:7.479;stroke-miterlimit:10;}
	.st3{fill:none;stroke:#FFFFFF;stroke-width:10;stroke-linecap:round;stroke-linejoin:round;stroke-miterlimit:10;}
	.st4{fill:none;stroke:#CF2027;stroke-width:10;stroke-miterlimit:10;}
	.st5{fill:#FFFFFF;}
	.st6{font-family:'MyriadArabic-Regular';}
	.st7{font-size:30px;}
	.st8{fill:#CF2027;}
	.st9{fill:none;stroke:#000000;stroke-width:7.5872;stroke-miterlimit:10;}
</style>
<g>
	<circle class="st0" cx="49.6" cy="48.9" r="35.3"/>
	<circle class="st1" cx="73.3" cy="219.2" r="26.8"/>
	<circle class="st2" cx="257.6" cy="71.3" r="26.4"/>
	<circle class="st0" cx="277.1" cy="238.3" r="35.3"/>
	<line class="st0" x1="200" y1="181.2" x2="248.9" y2="220.9"/>
	<line class="st3" x1="239" y1="93.3" x2="204.1" y2="128.1"/>
	<line class="st1" x1="273.9" y1="91.5" x2="306.5" y2="126"/>
	<circle class="st1" cx="320.6" cy="150.7" r="26.8"/>
	<line class="st1" x1="85.8" y1="46.8" x2="230.2" y2="66"/>
	<line class="st1" x1="99.4" y1="228.7" x2="243.8" y2="247.8"/>
	<line class="st1" x1="49.6" y1="84.2" x2="67.4" y2="192"/>
</g>
<circle class="st4" cx="176.7" cy="154.2" r="35.3"/>
<g>
	<text transform="matrix(1 0 0 1 34.0403 55.8464)" class="st5 st6 st7">5/8</text>
	<text transform="matrix(1 0 0 1 162.4952 162.299)" class="st8 st6 st7">5/8</text>
	<text transform="matrix(1 0 0 1 58.9936 226.7998)" class="st5 st6 st7">5/9</text>
	<text transform="matrix(1 0 0 1 242.8965 80.399)" class="st5 st6 st7">5/7</text>
	<text transform="matrix(1 0 0 1 301.0572 157.8982)" class="st5 st6 st7">5/11</text>
	<text transform="matrix(1 0 0 1 262.9952 246.4665)" class="st5 st6 st7">5/9</text>
</g>
<path class="st9" d="M147.9,134.3"/>
</svg>
