<?xml version="1.0" encoding="utf-8"?>
<!-- Generator: Adobe Illustrator 21.1.0, SVG Export Plug-In . SVG Version: 6.00 Build 0)  -->
<svg version="1.1" id="Layer_1" xmlns="http://www.w3.org/2000/svg" xmlns:xlink="http://www.w3.org/1999/xlink" x="0px" y="0px"
	 viewBox="0 0 360 288" style="enable-background:new 0 0 360 288;" xml:space="preserve">
<style type="text/css">
	.st0{fill:none;stroke:#FFFFFF;stroke-width:10;stroke-miterlimit:10;}
	.st1{fill:none;stroke:#FFFFFF;stroke-width:7.5872;stroke-miterlimit:10;}
	.st2{fill:none;stroke:#FFFFFF;stroke-width:10;stroke-linecap:round;stroke-linejoin:round;stroke-miterlimit:10;}
	.st3{fill:none;stroke:#FFFFFF;stroke-width:7.479;stroke-miterlimit:10;}
	.st4{fill:none;stroke:#CF2027;stroke-width:10;stroke-miterlimit:10;}
	.st5{fill:none;}
	.st6{fill:#FFFFFF;}
	.st7{font-family:'MyriadPro-Regular';}
	.st8{font-size:30px;}
	.st9{fill:#CF2028;}
</style>
<circle class="st0" cx="49.6" cy="48.9" r="35.3"/>
<circle class="st1" cx="73.3" cy="219.2" r="26.8"/>
<path class="st2" d="M149.8,126.7"/>
<path class="st2" d="M77.5,71.6"/>
<path class="st2" d="M144.7,173.3"/>
<path class="st2" d="M98.9,203.6"/>
<circle class="st3" cx="257.6" cy="71.3" r="26.4"/>
<circle class="st0" cx="277.1" cy="238.3" r="35.3"/>
<line class="st0" x1="200" y1="181.2" x2="248.9" y2="220.9"/>
<line class="st2" x1="239" y1="93.3" x2="204.1" y2="128.1"/>
<path class="st0" d="M68.7,203.1"/>
<line class="st1" x1="273.9" y1="91.5" x2="306.5" y2="126"/>
<circle class="st1" cx="320.6" cy="150.7" r="26.8"/>
<line class="st1" x1="85.8" y1="46.8" x2="230.2" y2="66"/>
<circle class="st4" cx="176.7" cy="154.2" r="35.3"/>
<rect x="41" y="36.5" class="st5" width="20" height="26.5"/>
<text transform="matrix(1 0 0 1 41.0459 57.848)" class="st6 st7 st8">2</text>
<rect x="168.5" y="142" class="st5" width="20" height="31"/>
<text transform="matrix(1 0 0 1 168.5 163.2998)" class="st9 st7 st8">2</text>
<rect x="65" y="206.5" class="st5" width="20" height="23.5"/>
<text transform="matrix(1 0 0 1 64.9984 227.8006)" class="st6 st7 st8">2</text>
<rect x="249.9" y="59.1" class="st5" width="20" height="23.9"/>
<text transform="matrix(1 0 0 1 249.9021 80.399)" class="st6 st7 st8">3</text>
<rect x="313.1" y="138.6" class="st5" width="20" height="31"/>
<text transform="matrix(1 0 0 1 313.0667 159.8998)" class="st6 st7 st8">1</text>
<rect x="269" y="225.2" class="st5" width="20" height="31"/>
<text transform="matrix(1 0 0 1 269 246.4665)" class="st6 st7 st8">2</text>
<line class="st1" x1="99.4" y1="228.7" x2="243.8" y2="247.8"/>
<line class="st1" x1="49.6" y1="84.2" x2="67.4" y2="192"/>
<path class="st1" d="M147.9,134.3"/>
<path class="st1" d="M76.2,74.8"/>
</svg>
