<?xml version="1.0" encoding="utf-8"?>
<!-- Generator: Adobe Illustrator 21.1.0, SVG Export Plug-In . SVG Version: 6.00 Build 0)  -->
<svg version="1.1" id="Layer_1" xmlns="http://www.w3.org/2000/svg" xmlns:xlink="http://www.w3.org/1999/xlink" x="0px" y="0px"
	 viewBox="0 0 230.4 180" style="enable-background:new 0 0 230.4 180;" xml:space="preserve">
<style type="text/css">
	.st0{fill:none;stroke:#FFFFFF;stroke-width:10;stroke-miterlimit:10;}
	.st1{fill:#FFFFFF;}
	.st2{fill:none;stroke:#FFFFFF;stroke-width:7.5872;stroke-miterlimit:10;}
	.st3{fill:none;}
	.st4{font-family:'MyriadPro-Regular';}
	.st5{font-size:30px;}
</style>
<circle class="st0" cx="47.7" cy="48.2" r="35.3"/>
<circle class="st0" cx="148.1" cy="132.3" r="35.3"/>
<g>
	<g>
		<line class="st0" x1="87.7" y1="88.8" x2="119.9" y2="114.9"/>
		<g>
			<polygon class="st1" points="81.7,103.1 71,75.2 100.5,79.9 			"/>
		</g>
	</g>
</g>
<g>
	<g>
		<line class="st2" x1="100" y1="47.5" x2="149.3" y2="47.3"/>
		<g>
			<polygon class="st1" points="103.4,58.8 83.7,47.5 103.3,36.1 			"/>
		</g>
		<g>
			<polygon class="st1" points="146,58.7 165.6,47.3 145.9,36 			"/>
		</g>
	</g>
</g>
<circle class="st2" cx="191.6" cy="44.7" r="26.8"/>
<g>
	<g>
		<line class="st2" x1="173.8" y1="87.3" x2="181.9" y2="71.9"/>
		<g>
			<polygon class="st1" points="185.3,89.7 166.1,101.7 165.3,79 			"/>
		</g>
	</g>
</g>
<rect x="39.5" y="33.4" class="st3" width="16.6" height="25.8"/>
<text transform="matrix(1 0 0 1 39.5125 54.7318)" class="st1 st4 st5">1</text>
<rect x="184" y="32.2" class="st3" width="15.7" height="24.4"/>
<text transform="matrix(1 0 0 1 183.9686 53.4885)" class="st1 st4 st5">2</text>
<rect x="140.3" y="119" class="st3" width="19.2" height="25.6"/>
<text transform="matrix(1 0 0 1 140.2722 140.2985)" class="st1 st4 st5">1</text>
</svg>
